<svg id="icon-rocket__easyi-copy" viewBox="0 0 1024 1024" width="100%" height="100%"><path d="M523.537 883.675c63.378 0 115.438 52.063 115.442 115.442 0 63.378-52.063 198.059-115.44 198.059s-115.442-134.681-115.44-198.059c-0.001-63.378 51.498-114.877 115.438-115.442z" fill="#EFC75E"></path><path d="M413.755 962.892l3.396 3.396c58.852 58.852 155.052 58.852 213.904 0l2.263-2.263c-14.713-46.403-58.286-79.789-110.349-79.789-50.359-0.566-93.936 32.818-109.215 78.656z" fill="#DEB957"></path><path d="M512.219 539.611c193.532 0 350.278 118.27 350.278 301.616v87.145c0 183.345-156.748-100.159-350.278-100.159s-350.283 284.639-350.283 100.159v-87.145c0.003-183.345 156.754-301.614 350.283-301.616z" fill="#F26C4F"></path><path d="M512.219-100.967c58.852 0 232.578 199.756 233.145 561.355-0.566 234.841-33.387 350.283-33.387 350.283-25.465 131.852-99.595 133.547-199.191 133.549s-174.29-1.132-199.191-133.549c0 0-32.822-116.573-33.387-351.414 0-361.029 172.596-560.789 232.011-560.22z" fill="#F4F0D3"></path><path d="M717.634 754.084c-27.163 136.944-104.123 139.207-207.114 139.207-104.123 0-181.082-1.131-207.114-139.207l-5.091-22.067c7.921 52.063 15.279 78.659 15.279 78.659 24.9 132.416 99.595 133.547 199.191 133.549s173.162-2.263 199.191-133.549c0 0 15.277-54.892 25.465-165.804-9.619 72.999-19.809 109.221-19.809 109.221z" fill="#E8E4C8"></path><path d="M512.219 278.176c55.456 0 100.159 44.704 100.159 100.159 0 55.456-44.704 100.159-100.159 100.159-55.456 0-100.159-44.704-100.159-100.159s45.271-100.729 100.159-100.159z" fill="#8BA0AB"></path><path d="M524.105 617.137c28.294 0 51.493 77.524 51.493 215.603s-23.199 198.625-52.063 198.059c-28.294 0-52.063-59.984-52.063-198.059 0.566-138.642 23.199-215.603 52.627-215.603z" fill="#F26C4F"></path><path d="M458.46 324.010c14.147-14.147 33.386-22.071 53.758-22.071s39.614 7.924 53.758 22.071 22.071 33.386 22.071 53.758c0 20.372-7.921 39.614-22.071 53.761s-33.386 22.067-53.758 22.067c-20.372 0-39.614-7.921-53.758-22.067s-22.067-33.386-22.067-53.761c-0.001-20.372 7.924-39.614 22.067-53.758M441.482 307.036c-18.107 18.107-29.426 43.007-28.86 70.735 0 55.456 44.704 100.159 100.159 100.159 27.163 0 52.627-10.752 70.735-28.86s29.426-43.007 28.86-70.735c0-55.456-44.704-100.159-100.159-100.159-27.728-0.566-52.627 10.752-70.735 28.86z" fill="#324D5B"></path><path d="M353.205 86.338c43.009 32.818 103.557 52.628 170.327 52.628 58.286-0.566 111.479-15.279 152.788-40.743-55.459-130.154-129.587-198.625-164.109-199.193-33.387-0.566-104.119 64.511-159.012 187.309z" fill="#F26C4F"></path></svg>