<?xml version="1.0" encoding="UTF-8" standalone="no"?>
<svg width="46px" height="27px" viewBox="0 0 46 27" version="1.1" xmlns="http://www.w3.org/2000/svg" xmlns:xlink="http://www.w3.org/1999/xlink">
    <!-- Generator: Sketch 41.2 (35397) - http://www.bohemiancoding.com/sketch -->
    <title>Page 1</title>
    <desc>Created with Sketch.</desc>
    <defs>
        <linearGradient x1="50%" y1="0%" x2="50%" y2="100%" id="linearGradient-1">
            <stop stop-color="#9F8AFF" stop-opacity="0.65" offset="0%"></stop>
            <stop stop-color="#5944FF" stop-opacity="0.6" offset="100%"></stop>
        </linearGradient>
    </defs>
    <g id="logo" stroke="none" stroke-width="1" fill="none" fill-rule="evenodd">
        <g id="Page-1">
            <g id="Group-13" transform="translate(22.020050, 3.379215)"></g>
            <path d="M24.5098607,11.8721392 C21.766001,16.5684304 21.3517704,21.8493797 22.9741063,26.0167215 C27.437605,25.321443 31.8586777,22.3264937 34.6025373,17.6302025 C37.346397,12.9339114 37.7606276,7.65296203 36.1382917,3.48562025 C31.674793,4.18089873 27.2537203,7.1758481 24.5098607,11.8721392" id="Fill-4" fill="url(#linearGradient-1)"></path>
            <path d="M17.1789709,13.0083835 C17.1789709,18.4312823 19.4923444,23.209257 23.0059835,26.0168013 C26.5196226,23.209257 28.832996,18.4312823 28.832996,13.0083835 C28.832996,7.58548481 26.5196226,2.80751013 23.0059835,-3.41772152e-05 C19.4923444,2.80751013 17.1789709,7.58548481 17.1789709,13.0083835" id="Fill-1" fill="url(#linearGradient-1)"></path>
            <path d="M31.5904942,14.5304089 C26.8379679,17.2418013 23.8071559,21.6105608 23.1035519,26.0212443 C27.320795,27.6243835 32.6649805,27.2150544 37.4175068,24.503662 C42.1700331,21.7922696 45.2008451,17.4235101 45.9044491,13.0128266 C41.687206,11.4096873 36.3430206,11.8190165 31.5904942,14.5304089" id="Fill-6" fill="url(#linearGradient-1)"></path>
            <path d="M11.4501033,17.6302139 C14.1939629,22.3265051 18.6150356,25.3214544 23.0785343,26.0167329 C24.7008702,21.8493911 24.2866396,16.5684418 21.5427799,11.8721506 C18.7989203,7.17585949 14.3778476,4.18091013 9.91434887,3.48563165 C8.29201303,7.65297342 8.70624361,12.9339228 11.4501033,17.6302139" id="Fill-9" fill="url(#linearGradient-1)"></path>
            <path d="M8.48696541,24.503662 C13.2394917,27.2150544 18.5836772,27.6243835 22.8009203,26.0212443 C22.0973163,21.6105608 19.0665043,17.2418013 14.3139779,14.5304089 C9.56145163,11.8190165 4.21726617,11.4096873 2.30576443e-05,13.0128266 C0.703627068,17.4235101 3.7344391,21.7922696 8.48696541,24.503662" id="Fill-11" fill="url(#linearGradient-1)"></path>
            <g id="Group-19" transform="translate(19.483709, 11.239975)" fill="#FEFEFE">
                <path d="M6.93433283,15.5842177 C5.23740551,12.5210278 4.25076892,9.02014177 4.18470877,5.29733165 L4.18470877,3.59257215 L2.86638797,3.59257215 L2.86638797,5.40316709 C2.78338045,9.09601519 1.7944381,12.5677367 0.105580952,15.6075722 L6.93894436,15.6075722 L6.93433283,15.5842177 Z" id="Fill-15"></path>
                <polygon id="Fill-17" points="1.35859098 0.821039241 2.34442055 0.0819 2.8597589 1.77367215"></polygon>
                <polygon id="Fill-14" points="2.88077594 4.42648481 2.85587368 1.7425481 6.54544261 3.0631557"></polygon>
            </g>
        </g>
    </g>
</svg>